<svg width="61" height="65" viewBox="0 0 61 65" fill="none" xmlns="http://www.w3.org/2000/svg">
<line x1="16.2283" y1="10.7138" x2="31.2283" y2="1.71376" stroke="white" stroke-width="3"/>
<line x1="2.18095" y1="38.7434" x2="15.9895" y2="29.7434" stroke="white" stroke-width="3"/>
<line x1="14.181" y1="47.7434" x2="27.9895" y2="38.7434" stroke="white" stroke-width="3"/>
<line x1="14.7717" y1="10.7138" x2="29.7717" y2="19.7138" stroke="white" stroke-width="3"/>
<line x1="14.7717" y1="29.7138" x2="29.7717" y2="38.7138" stroke="white" stroke-width="3"/>
<line x1="0.771744" y1="38.7138" x2="15.7717" y2="47.7138" stroke="white" stroke-width="3"/>
<line x1="28.2941" y1="19.6765" x2="43.2941" y2="11.6765" stroke="white" stroke-width="3"/>
<line x1="29.795" y1="1.728" x2="45.795" y2="11.728" stroke="white" stroke-width="3"/>
<line x1="29.5" y1="20" x2="29.5" y2="39" stroke="white" stroke-width="3"/>
<line x1="15.5" y1="12" x2="15.5" y2="31" stroke="white" stroke-width="3"/>
<line x1="44.5" y1="11" x2="44.5" y2="31" stroke="white" stroke-width="3"/>
<line x1="29.7717" y1="37.7138" x2="44.7717" y2="46.7138" stroke="white" stroke-width="3"/>
<line x1="29.2941" y1="37.6765" x2="44.2941" y2="29.6765" stroke="white" stroke-width="3"/>
<line x1="43.795" y1="29.728" x2="59.795" y2="39.728" stroke="white" stroke-width="3"/>
<line x1="43.2941" y1="46.6765" x2="58.2941" y2="38.6765" stroke="white" stroke-width="3"/>
<line x1="44.3657" y1="63.6407" x2="59.3657" y2="56.6407" stroke="white" stroke-width="3"/>
<line x1="58.5" y1="39" x2="58.5" y2="58" stroke="white" stroke-width="3"/>
<line x1="15.5" y1="47" x2="15.5" y2="65" stroke="white" stroke-width="3"/>
<line x1="29.5" y1="39" x2="29.5" y2="56" stroke="white" stroke-width="3"/>
<line x1="44.5" y1="46" x2="44.5" y2="65" stroke="white" stroke-width="3"/>
<line x1="29.7717" y1="54.7138" x2="44.7717" y2="63.7138" stroke="white" stroke-width="3"/>
<line x1="15.1889" y1="63.7382" x2="29.1889" y2="54.7382" stroke="white" stroke-width="3"/>
<line x1="0.634328" y1="56.6407" x2="15.6343" y2="63.6407" stroke="white" stroke-width="3"/>
<line x1="1.5" y1="40" x2="1.5" y2="58" stroke="white" stroke-width="3"/>
</svg>
